<svg width="3852" height="829" viewBox="0 0 3852 829" fill="none" xmlns="http://www.w3.org/2000/svg">
<path d="M585.022 206.383H455.829L243.821 703.277H376.326L512.144 383.608C538.645 345.182 549.687 367.597 551.895 383.608L414.421 703.277H551.895L695.995 335.575C680.094 260.047 585.574 291.959 540.301 317.356L585.022 206.383Z" fill="white" stroke="white"/>
<path d="M585.022 206.383H455.829L243.821 703.277H376.326L512.144 383.608C538.645 345.182 549.687 367.597 551.895 383.608L414.421 703.277H551.895L695.995 335.575C680.094 260.047 585.574 291.959 540.301 317.356L585.022 206.383Z" fill="white" stroke="white"/>
<path d="M3707.93 303.331H3578.24L3423.94 719.84H3556.96L3666.7 397.39C3693.31 357.714 3704.39 380.859 3706.61 397.39L3595.21 719.84H3733.22L3851.27 347.795C3835.31 269.811 3740.42 302.761 3694.97 328.983L3707.93 303.331Z" fill="white" stroke="white"/>
<path d="M303.449 166.631L2 827.5L194.132 703.277L430.985 166.631H628.086L712.558 37.439H2L38.4389 166.631H303.449Z" fill="white" stroke="white"/>
<path d="M1648.37 163.38L1346.93 824.249L1539.06 700.026L1775.91 163.38V514.457L2087.44 163.38L1841.19 699.964H2011.11L2271.14 34.1262H2143.61L2142.19 37.1994H2054.17L1853.75 290.855V34.1262L1499.31 34.188L1535.75 163.38H1648.37Z" fill="white" stroke="white"/>
<path fill-rule="evenodd" clip-rule="evenodd" d="M702.761 406.797L616.633 620.461C605.039 653.035 599.076 717.852 694.479 716.527H732.575C775.639 717.079 870.712 698.639 906.488 620.461C942.264 542.283 982.126 445.444 997.585 406.797C1006.97 369.806 1005.2 295.824 923.051 295.824H868.393C827.802 299.136 737.849 325.968 702.761 406.797ZM838.579 391.89L740.857 620.461C732.359 640.337 739.524 645.306 744.169 645.306H752.451C761.726 645.306 770.67 628.742 773.983 620.461L875.018 388.577C880.318 374.002 872.81 369.253 868.393 368.701H863.424C854.148 368.701 842.996 384.16 838.579 391.89Z" fill="white" stroke="white"/>
<path fill-rule="evenodd" clip-rule="evenodd" d="M3201.7 410.109L3115.58 623.773C3103.98 656.348 3098.02 721.165 3193.42 719.84H3231.52C3274.58 720.392 3369.65 701.951 3405.43 623.773C3411.56 610.389 3417.8 596.458 3424.02 582.366H3290.97L3272.93 623.773C3269.61 632.055 3260.67 648.618 3251.39 648.618H3243.11C3238.47 648.618 3231.3 643.649 3239.8 623.773L3288.66 509.488L3290.97 506.175C3286.84 515.817 3301.91 526.051 3309.66 526.051H3421.99C3421.99 526.051 3449.02 532.827 3463.69 497.894C3478.36 462.96 3489.41 427.891 3496.53 410.109C3505.91 373.118 3504.15 299.136 3421.99 299.136H3367.34C3326.74 302.449 3236.79 329.281 3201.7 410.109ZM3362.37 372.014C3353.09 372.014 3341.94 387.473 3337.52 395.202L3301.5 480.502C3294.97 495.77 3304.22 498.458 3309.66 497.894H3316.28C3324.23 497.894 3332.52 486.852 3335.66 481.331L3373.96 391.89C3379.26 377.314 3371.75 372.566 3367.34 372.014H3362.37Z" fill="white"/>
<path d="M3316.28 497.894C3324.23 497.894 3332.52 486.852 3335.66 481.331L3373.96 391.89C3379.26 377.314 3371.75 372.566 3367.34 372.014H3362.37C3353.09 372.014 3341.94 387.473 3337.52 395.202L3301.5 480.502C3294.97 495.77 3304.22 498.458 3309.66 497.894M3316.28 497.894C3308.33 497.894 3308.55 497.894 3309.66 497.894M3316.28 497.894H3309.66M3201.7 410.109L3115.58 623.773C3103.98 656.348 3098.02 721.165 3193.42 719.84H3231.52C3274.58 720.392 3369.65 701.951 3405.43 623.773C3411.56 610.389 3417.8 596.458 3424.02 582.366H3290.97L3272.93 623.773C3269.61 632.055 3260.67 648.618 3251.39 648.618H3243.11C3238.47 648.618 3231.3 643.649 3239.8 623.773L3288.66 509.488L3290.97 506.175C3286.84 515.817 3301.91 526.051 3309.66 526.051H3421.99C3421.99 526.051 3449.02 532.827 3463.69 497.894C3478.36 462.96 3489.41 427.891 3496.53 410.109C3505.91 373.118 3504.15 299.136 3421.99 299.136H3367.34C3326.74 302.449 3236.79 329.281 3201.7 410.109Z" stroke="white"/>
<path d="M2774.37 623.773C2762.78 656.348 2756.82 721.165 2852.22 719.84H2890.32C2933.38 720.392 3028.45 701.951 3064.23 623.773C3072.03 606.728 3103 539.106 3110.9 521.082C3138.46 458.142 3026.13 468.08 2959.79 468.08L2996.32 395.202C3000.74 387.473 3011.89 372.014 3021.17 372.014H3026.13C3030.55 372.566 3038.06 377.314 3032.76 391.89L3011.11 441.579H3142.57C3147.73 428.984 3152.07 418.254 3155.33 410.109C3164.71 373.118 3162.95 299.136 3080.79 299.136H3026.13C2985.54 302.449 2895.59 329.281 2860.5 410.109L2834.29 468.08C2804.21 567.459 2882.33 537.645 2971.77 537.645L2931.73 623.773C2928.41 632.055 2919.47 648.618 2910.19 648.618H2901.91C2897.27 648.618 2890.1 643.649 2898.6 623.773L2921.26 570.771H2795.74L2774.37 623.773Z" fill="white" stroke="white"/>
<path d="M1312.14 289.198C1349.25 289.198 1358.52 320.116 1358.52 335.575C1361.17 349.723 1357.42 366.867 1355.21 373.67C1346.34 392.975 1333.3 421.401 1318.75 453.173H1185.76L1216.08 381.952C1220.05 370.026 1217.73 363.732 1216.08 362.076H1202.83C1194.88 362.076 1187.37 372.014 1184.61 376.983L1041.95 703.277H909.66L934.505 646.962L1081.92 299.136L1216.08 299.136L1207.8 322.325C1214.42 311.724 1261.35 295.824 1283.99 289.198H1312.14Z" fill="white" stroke="white"/>
<path fill-rule="evenodd" clip-rule="evenodd" d="M2516.28 310.028L2340.71 715.824H2208.21L2236.37 673.463C2218.7 681.744 2178.73 698.307 2160.18 698.307H2140.3C2120.42 697.755 2085.64 683.401 2082.33 656.9V648.618C2097.24 596.168 2148.58 441.87 2208.21 353.092C2273.84 255.37 2372.18 316.653 2372.18 334.872L2392.06 310.028H2516.28ZM2347.34 394.5L2256.24 610.523C2251.63 621.123 2244.94 625.43 2241.33 625.43H2228.08C2225.88 625.982 2218.81 623.111 2221.46 607.21C2224.77 587.335 2315.87 391.187 2320.84 382.906C2324.81 376.28 2331.33 373.52 2334.09 372.968H2344.03C2354.63 372.968 2350.65 387.322 2347.34 394.5Z" fill="white"/>
<path d="M2160.18 698.307C2178.73 698.307 2218.7 681.744 2236.37 673.463L2208.21 715.824H2340.71L2516.28 310.028H2392.06L2372.18 334.872C2372.18 316.653 2273.84 255.37 2208.21 353.092C2148.58 441.87 2097.24 596.168 2082.33 648.618V656.9C2085.64 683.401 2120.42 697.755 2140.3 698.307M2160.18 698.307C2141.63 698.307 2139.2 698.307 2140.3 698.307M2160.18 698.307H2140.3M2344.03 372.968C2354.63 372.968 2350.65 387.322 2347.34 394.5L2256.24 610.523C2251.63 621.123 2244.94 625.43 2241.33 625.43H2228.08C2225.88 625.982 2218.81 623.111 2221.46 607.21C2224.77 587.335 2315.87 391.187 2320.84 382.906C2324.81 376.28 2331.33 373.52 2334.09 372.968M2344.03 372.968C2333.43 372.968 2332.98 372.968 2334.09 372.968M2344.03 372.968H2334.09" stroke="white"/>
<path fill-rule="evenodd" clip-rule="evenodd" d="M2580.09 670.15L2568.49 701.62H2696.03L2955.21 95.4098L3067.83 1L2824.36 95.4098L2734.12 317.356C2726.95 306.314 2706.3 284.229 2681.12 284.229H2656.28C2633.09 285.886 2580.09 301.786 2553.59 352.138C2527.09 402.49 2457.52 565.25 2426.05 640.337C2421.08 661.869 2420.09 704.933 2455.86 704.933H2507.21C2522.12 703.277 2557.56 694.001 2580.09 670.15ZM2707.62 376.983L2601.62 615.492C2593.67 630.068 2588.37 633.711 2586.71 633.711H2573.46C2562.86 633.711 2563.52 621.565 2565.18 615.492C2599.41 536.541 2669.2 379.633 2674.5 370.358C2679.8 361.082 2687.75 357.659 2691.06 357.107H2701C2711.6 357.107 2709.83 370.358 2707.62 376.983Z" fill="white"/>
<path d="M2681.12 284.229C2706.3 284.229 2726.95 306.314 2734.12 317.356L2824.36 95.4098L3067.83 1L2955.21 95.4098L2696.03 701.62H2568.49L2580.09 670.15C2557.56 694.001 2522.12 703.277 2507.21 704.933M2681.12 284.229C2655.95 284.229 2654.07 284.229 2656.28 284.229M2681.12 284.229H2656.28M2656.28 284.229C2633.09 285.886 2580.09 301.786 2553.59 352.138C2527.09 402.49 2457.52 565.25 2426.05 640.337C2421.08 661.869 2420.09 704.933 2455.86 704.933M2455.86 704.933C2491.64 704.933 2505 704.933 2507.21 704.933M2455.86 704.933H2507.21M2701 357.107C2711.6 357.107 2709.83 370.358 2707.62 376.983L2601.62 615.492C2593.67 630.068 2588.37 633.711 2586.71 633.711H2573.46C2562.86 633.711 2563.52 621.565 2565.18 615.492C2599.41 536.541 2669.2 379.633 2674.5 370.358C2679.8 361.082 2687.75 357.659 2691.06 357.107M2701 357.107C2690.4 357.107 2689.96 357.107 2691.06 357.107M2701 357.107H2691.06" stroke="white"/>
</svg>
